/* XPM */
static char *_53fc1b9eac44cadb87777a17062b5dalblTl9DCkKJ5kjpP[] = {
/* columns rows colors chars-per-pixel */
"64 64 97 2 ",
"   c #0A4E5F",
".  c #0A4F60",
"X  c #0D5364",
"o  c #0C5768",
"O  c #0B5E6E",
"+  c #0C5F70",
"@  c #0A6576",
"#  c #086977",
"$  c #096779",
"%  c #0B6B7C",
"&  c #136E7B",
"*  c #0F727F",
"=  c #14717C",
"-  c #0E6E81",
";  c #116C82",
":  c #0E7585",
">  c #0F7986",
",  c #0D7789",
"<  c #0E7A8A",
"1  c #107280",
"2  c #127C86",
"3  c #127E8A",
"4  c #0F7E91",
"5  c #107F91",
"6  c #11818E",
"7  c #0E8392",
"8  c #0F8A95",
"9  c #0F8D9A",
"0  c #128593",
"q  c #138B96",
"w  c #138D9A",
"e  c #1B8F9B",
"r  c #0F939D",
"t  c #149097",
"y  c #12929D",
"u  c #19959F",
"i  c #0F96A2",
"p  c #0F99A2",
"a  c #1296A1",
"s  c #1997A0",
"d  c #129BA4",
"f  c #1999A2",
"g  c #129FA8",
"h  c #0FA3AB",
"j  c #12A1A7",
"k  c #12A2AA",
"l  c #18A0A9",
"z  c #18A6AB",
"x  c #18A5AC",
"c  c #19A7AE",
"v  c #13A8AD",
"b  c #13A8AF",
"n  c #14A8AE",
"m  c #0EA9B0",
"M  c #13A7B0",
"N  c #14ABB2",
"B  c #18AFB6",
"V  c #16AFB8",
"C  c #16B1B6",
"Z  c #18B3B7",
"A  c #16B5BA",
"S  c #18B3BA",
"D  c #16BBBD",
"F  c #17B9C1",
"G  c #16BEC1",
"H  c #17BCC2",
"J  c #16BEC3",
"K  c #18BAC1",
"L  c #18BCC2",
"P  c #18BDC3",
"I  c #16C3C5",
"U  c #18C3C5",
"Y  c #14C8C7",
"T  c #16C6C8",
"R  c #19C6C8",
"E  c #15C9CD",
"W  c #16CBCC",
"Q  c #14CBCE",
"!  c #17CCCF",
"~  c #18CCCD",
"^  c #18D1CF",
"/  c #16CFD1",
"(  c #19CED1",
")  c #16D3D3",
"_  c #17D3D5",
"`  c #17D4D4",
"'  c #1AD0D2",
"]  c #1AD1D3",
"[  c #19D3D4",
"{  c #1AD7D7",
"}  c #17D8D7",
"|  c #17D6D9",
" . c #19D7D9",
".. c #1CD6D8",
"X. c #17D8DA",
"o. c #19D8DA",
"O. c #1DD8D9",
/* pixels */
"g g g g x k d d f f d d f u e f v v v v v M v n x x w u u u u u s u s u s u u u u u u u s s s a s s s s s s s s d g l g f u u u ",
"k k k k k k k k k k k k k k g d g d g g g g g d g d y k k v v v v v k v v v z x v v v x x x v v v v k x x z x x x x z k v x x x ",
"d d d d d d d d d d g g d d a 9 a d d d d g d d d w 8 d g g g g g g g g g g g g g k g g g g k k k k k g k k k k k k j k k k k k ",
"d d d d d d d d d d d d d d f 8 < 6 6 6 6 6 6 6 3 * w d d g g g g g g g g g k k k k k k k k k k k k k k k k k k k k k k k k k k ",
"w w 8 w w w w w w w w w w w w 0 1 o .     .     X = q w t t t t t t t t t t t t t t t t t t t t t t t t t t t t t t t t t t t t ",
"z z z z z z x x x x x x x x x x l a t t t t w w t f k x x x x x x x x x x x x x x x x x x x x x x x x x x x x x x x x x x x x x ",
"O.' ! } o.o.o.o.o.o.o.o.o.o.o. . .o.o.o.o. . .o. . . . . . . . . . . . .{ ' ' .. . .o.o.o.o.o.o.o.o.o.o.o.o.o.o.o.o.o.o.o.o.o.o.",
"O.E E / X.o.o.X.X.X.X.o.X.X.X.X.o.o.o.o.o.o. .o.o.o. . . .| | | |  . . .{ ) / _  .|  . . . . . . . . .|  .| | | X.X.X.| | | | | ",
"o.{ ) ) o.o.o.o.o.o.o.X.X.X.X.X.X.X.X.X.X.o.X.X.o.o.o.o.o.X.X.o.o.o.o.o.o.} ) ` o.o.o.o.o.o.o.o.o.o.o.o.o.o.o.o.o.o.o.o.o.o.o.o.",
"K F F F F F F K K K K K H L L L L L L H H L L L L L L L L L L L L H H L L H H H H L L H H H H H H L L L L L H H H H H H H H H H ",
"a i a a a a i a a a a i p p d p p p p p p p p d d d d d d d d d d d d d d p p p p d d d d d d d d d d d d d d d d d d d d d d d ",
"g g g g g g g g g g g g g g g g k k k k k k k k k k k k k k k k k k k k k k k k k k k k k k k k k k k k k k k k k k k k k k k k ",
"g g g g g g g g g d g g g g g g k k k k k k k k k k k k k k k k k k k k k k k k k k k k k k k k k k k k k k k k k k k k k k k k ",
"y y y y y y y y y y y y y a a a a a a a a a a a a a a a a a a a a a a a a a a a a a a a a a d a a d d d d d d d d d d d d d d d ",
": : : : : : : : : : : : : : : : : : : : : : : : : , , , , , : : : : , , , , : : , , , , , , , , , , , , , , : : : , , , , , , , ",
"d d d d d d d d d d d d d d d d d d d d d d d d d d d g g d d d g g g g g g g g g g g g g g d d g g k k k g d d g g g g g g g g ",
"C C C C C C C C C C C C C A A A C C C C A A A A A A A A A A A A A A A A A D A A A A A A A A D A A D D D D D A A A A A A A A A A ",
"N N N N N N N N N N N N N N N N N N N N N N N N C C C C N N C M N C C C C C C C C C C C C C C C C C C C C C C C C C C C C C C C ",
"v v v v v n n n n n n n n n n n n n M v v M M M M M M M M M M d x M M M M N M M M M N M M M M M N N M M M M M M M M N M M M M M ",
"d d d g g d d d g d d j d g g g k k k k k k k k k k k d d d k 9 d g d k k h k k k k k k k k k k k k k k k k k k k k k k k k k v ",
"d d d d d d d d d d d d d d g g g g g g g g k k k g d y < q d 8 y 0 5 a g h k k k k k k k k k k k k k k k k k k k k k k k k k k ",
"d d d d d d d d d d d d d d d g g g g g g g g k k k d w 7 7 d q a 7 4 8 g k k k k k k k k k k k k k k k k k k k k k k k k k k k ",
"d d d d d d d d d d d d d d d d d d g g g g g g k k k d y a g q d a y d k k k k k k k k k k k k k k k k k k k k k k k k k g g g ",
"0 0 0 0 q q q q q q q q q q q q q q q q q q q q q q q q q w q > 0 q q q w q q q q q w q q q w w q q q q q q q q q q w q q q q q ",
"@ @ @ $ $ $ $ @ $ $ $ $ $ $ $ $ $ $ $ $ $ $ $ $ $ $ $ $ $ $ $ O @ $ $ $ $ $ $ $ $ $ $ $ $ $ $ $ $ $ $ $ $ $ $ $ $ $ $ $ $ $ $ # ",
"w w w w w w w w w w w w w w w w t t t t t w w w t t t t w t t w t t t t t t t t t t t t t t t t t t t t t t t t t t t t t t t y ",
"M M M M M M N M M M N N N N N N N N B N N N N N N N N N N B N N N C N N C C C C C C N N V N C C C C C C C N N N N N N N N Z C C ",
"v v v v k v v h m M k M v M v v M M M M M M M M v M v v v M v v M M M M M M M M M M M M M M M M M M M M M M M v v v v v M M M M ",
"~ ~ ~ ~ ~ ~ ~ ( E N v ~ ! ( ( ( ( ( ( ( ( ( ( ( ( ( ( ( ( ( ( ( ( ( ( ( ( ( ( ( ( ( ( ( ( ( ( ( ( ( ( ( ( ( ( ( ( ( ( ( ( ( ( ( ",
") ) ) ' ) ) ' { R k k ' {  . . .o.o.o.o.o.o.o.o.o.o.o.o.o.o.o.o.o.o.o.o.o.o.o.X.X.X.X.X.X.X.X.X.X.X.X.X.X.X.X.X.X.X.X.X.X.X.X.X.",
"! ! ! ( E ! ' ' R k k ' { { { {  . .{ { {  . . . . . . . . . . . . . . . . . .o.o.o.o.o.o.o.o.o.o.o.X.X.X.X.X.X.X.X.X.X.o.o.X.o.",
"( ( ( ( ( ( ' ' R j j ' { { { {  . .{ { {  . . . . . . . . . . . . . . . . . . .o. . .o.o.o.o.o.o.o.o.o.o.o. .o. .o.o. . . .| | ",
"( ( ( ( ( ' ' ' R j j ' ' ' ' { { { { { { { { { { { {  . . . . . . . . . . . . .| | |  . .o.o.o.o.o.| o.o.o. . . .o.o.|  .| | | ",
"! ! ! ! ! ( ( ' R j d ( ) ) ) ' ' ' ' { { { [ [ { [ { { { { { {  . . .{ { {  . .{ { {  . . .` ` {  . . . . . . . .{ { {  . .{ ` ",
"E E ! ! ! ! ! ! R d d ! / / / ' ' ' ) ) ' ' ' ' ' ' ) { [ ' ' ' ' ' ' ' [ ' ' ' { { { {  .{ { { ` {  . . . . .{ { { { { { { { { ",
"E E E ! E E E E U d d ~ ! ! ! ( ! ! ! ! ) ' ' ( ' ' ' ' ' ' ' ' ' ' ' ' ' ) ' ' ) ' ' ' ' ' ' ' ' ' ' ' ' ' ' ' ' ' ' ' ' ' _ { ",
"E E W W W W W W I d d R E ! ! ! ! ! ! ! ! ! ! ! ! ! ( ( ( ( ! ! ' ' ' ' ' ' ^ ^ ' ' ) ' ' ' ' ' ' ' ' ' ' ' ' ' ' ' ' ' ' ' ' ' ",
"T T T T T E E E U d r R E E E ! ! W E ! E E E E ! ! ! E ! ! ! ! / ( / ! ! ! ! ! ! / / / / / / ) ) ' ' ^ ^ ^ ' ' ' ' ' ) ' ' ) ) ",
"T T T T T T T T H d y T Y T E E W W W W E W E E E E E E E ! ! ! E E E E W E E E ! ! ! ! ! ! ! ! ! ! ! ! ! ! ! ! ! ! ! ! / / / / ",
"I I I I T T T T D d y U T T T T T T T T T T T T T T T E W W W W E E E E W W W E W W E E E E E E E ~ ~ ~ ~ ~ W W E E E E ( ( ! ! ",
"I I I I I I T T D d t H I I I I I I I T T T I I I I T T T T T T T T T T E E E E W W E T T E E E E E E E E E W W E E E W E E E E ",
"H D D D H L L H A d t D D H H H H H H I I I H I H H I U U U I I I I I U U U U I T T I I I I I I I I I T R R R I T R R R I I I I ",
"y y y y y y y p d y 7 y d r r y a a d d p d d d i i d d d d d a a a y d d d d d d p p r p p d d d p p d d d d d d a d a a d d d ",
"8 8 q 8 8 8 q 9 9 y w w w w w w w w w w w w t t 9 r r t t t y y y 9 w y y y y y y y y w y t w w t y y y y y w w w w t t y y y y ",
"d d d d d d d d g d d d d d d g g g g g g g g g d j j k k k k k k k k k k k k k k k k k k k k k k k k k k k k k k k k k k k k k ",
"d d d d d g g d g g j j k k k k k k k k k k k k j j k k k k k u d k k k k k k k k k k k k k v v v v v v v v v v k k k k k z k k ",
"d d d d d d d d d d d g d g k g g k k k k k k g d d d g g g j 2 8 g d g g g g g k k k k k k k k k k k k k k k k k k k k k k k k ",
"y a y y y a a a a a d d d d d d d d d d d d d d y y y w w a y = 3 y y y y y i d d d d d d d d d d d d d d d d d d d d d d d d d ",
"y y r y y y y r r r r r y a y y y a a a a a a y y y w : : q u = 3 w : : w r r a a d d d d d d d d d d d d d d d d d d d d d d d ",
"y y y y y y y y y y y y y y y y y y a a y y y y y y q % & 0 y = 2 q - ; 0 y r y y a a a a a a a d d a a a a d d a a a a a a a d ",
"y y t t y y y y y y y y y y y y y y y y y y y y y y t 0 6 w y = 3 y 0 0 w y y y y y y a y y y y y y y y y y y y y y a a y y y y ",
"w w w t w w w w w w w w y y y y y y y y y y y y y y y t w y y = 3 y w w y y y y y y y y y y y y y y y y y y y y y y y y y y y y ",
"w w w w w w w w w w w w w w w w w w w w w w y y y y w : 1 0 y = 3 w : : q y y y y y y y y y y y y y y y y y y y y y y y y y y y ",
"w w w w w w w w w w w w w w w w w w w w w w w w w y 0 - % < y & 2 0 % % 0 y y y y y y y y y y y y y y y y y y y w y y y y y y y ",
"w w w w w w w w w w w w w w w w w w w w w w w w w y w 6 3 q y = 2 w 3 3 w y y y y w w y y y y y y y y y y y y y y y y y y y y y ",
"q q q q q q q w w w q q q w w w w w w w w w w w w w w w w w w & 2 w w w w w w w w w w w w w w w w w w w w w w w w w w w w w w w ",
"O O O O O O O O O O O O O O O O O O O O O + + + + + + + + + + X o + + O O + + + + + + + + + + + + + + + @ @ @ + + + + O + + O O ",
"= * * * * * * * : : 1 1 1 1 1 1 1 1 : * * * * * * * * : : = 1 1 1 : : * * * * * * * * * * * * * = * : : : : : * * * * * * * * * ",
"y y y y y y y y y y a a a a a a a a a a a a a a a a a a a a a a a a a a a a a a a a a a a a a a a a a a a a a a a a a a d d d d ",
"w w w w w w w w w w w w w w w w w w w w w w w w w w w w w w w w w w w w w w w w w w y y r r r r r y y y y y y y y y y y y y y y ",
"w w w w w w w w w w w w w w w w w w w w w w w w w w w w w w w w w w w 9 y y y y y y y y y y y y y y y y y y y y y y y y y y y y ",
"0 0 0 0 q q q q q q q q q q q q q q q q q q q q q q q q q q q q q q q q q q q q q q q q q q q q q q q w w w q q q w w w w w w w ",
"C C N N N C C C C C C C C C C C S S C C C C C C C C C C C C C C A A A A A A A A C S S C C C Z S S S S S S S S S S S S S S S S S ",
"D D D A D D H D D H H H I H H H I I I I I I I I I I I I I I I I I I I I I I I D D I I I I I I U U U I T T T I U I T T T R U I I "
};
