/* XPM */
static char *_a73b032d920458cc7ca80c31a9789b8BgN2kQf95w4O347B[] = {
/* columns rows colors chars-per-pixel */
"64 64 147 2 ",
"   c #463F3C",
".  c #46413D",
"X  c #4A443D",
"o  c #4F493E",
"O  c #4E4640",
"+  c #4F4941",
"@  c #504742",
"#  c #504842",
"$  c #5C574E",
"%  c #5E594E",
"&  c #60594F",
"*  c #645C51",
"=  c #676054",
"-  c #686154",
";  c #6F675A",
":  c #70675A",
">  c #746C5D",
",  c #79705F",
"<  c #776F60",
"1  c #7C7363",
"2  c #7E7768",
"3  c #817665",
"4  c #837A67",
"5  c #847B6A",
"6  c #897F6C",
"7  c #8B826D",
"8  c #92866E",
"9  c #96896F",
"0  c #8D8573",
"q  c #8F8875",
"w  c #8F8778",
"e  c #8F8878",
"r  c #928773",
"t  c #938A75",
"y  c #9B8E74",
"u  c #948D7A",
"i  c #998E7A",
"p  c #9E9175",
"a  c #96917D",
"s  c #9B937D",
"d  c #A29477",
"f  c #A19379",
"g  c #A6997D",
"h  c #988F80",
"j  c #9D9582",
"k  c #9F9883",
"l  c #A09782",
"z  c #A29A85",
"x  c #AB9E83",
"c  c #A59E89",
"v  c #A89F8A",
"b  c #A89F90",
"n  c #ABA185",
"m  c #A7A08A",
"M  c #AAA28C",
"N  c #B2A686",
"B  c #B5AC87",
"V  c #B1A68B",
"C  c #B4AB8C",
"Z  c #B9AE8D",
"A  c #BCB18E",
"S  c #AEA691",
"D  c #AFA892",
"F  c #AEA798",
"G  c #B1A790",
"H  c #B4AC94",
"J  c #B8AF93",
"K  c #B4AD9A",
"L  c #B8AF9A",
"P  c #B7B096",
"I  c #BAB194",
"U  c #B6B09C",
"Y  c #BAB39C",
"T  c #BEB89D",
"R  c #B5B2A4",
"E  c #BCB5A1",
"W  c #BDB8A4",
"Q  c #C1B38E",
"!  c #C2B593",
"~  c #C4BA95",
"^  c #C0B79C",
"/  c #C2BA9D",
"(  c #C3BCA3",
")  c #C4BEA9",
"_  c #C7C09A",
"`  c #CAC39C",
"'  c #C6C1A6",
"]  c #CAC3A6",
"[  c #CFC8A7",
"{  c #C7C3AC",
"}  c #CAC5AC",
"|  c #CDC9AC",
" . c #D3CCA4",
".. c #D0C7AA",
"X. c #D3CCAC",
"o. c #D6D1AF",
"O. c #DAD2AD",
"+. c #CBC6B0",
"@. c #CDC9B2",
"#. c #D2CDB2",
"$. c #D4CFB9",
"%. c #D6D2B4",
"&. c #DCD5B4",
"*. c #DFD8B5",
"=. c #D5D1BC",
"-. c #D8D3BB",
";. c #D8D3BC",
":. c #D9D5BD",
">. c #DBD6BD",
",. c #D9D8BE",
"<. c #DDD9BE",
"1. c #D6D1C0",
"2. c #DAD5C1",
"3. c #DBD7C0",
"4. c #DEDBC2",
"5. c #E1DEC3",
"6. c #E1DCCA",
"7. c #E4E1C6",
"8. c #E6E4C9",
"9. c #E9E5CB",
"0. c #EDE9CF",
"q. c #EBE7D0",
"w. c #EDEBD3",
"e. c #EBEBD9",
"r. c #F1EED5",
"t. c #F2EFD6",
"y. c #F3F0D6",
"u. c #F5F1D7",
"i. c #F2F1D9",
"p. c #F4F1D8",
"a. c #F5F3D9",
"s. c #F7F4DB",
"d. c #F7F4DC",
"f. c #F9F7DD",
"g. c #FBFADF",
"h. c #F4F4E2",
"j. c #F7F7E5",
"k. c #FAF7E1",
"l. c #FBFBE0",
"z. c #FCF9E2",
"x. c #FDFCE3",
"c. c #FCFBE7",
"v. c #FCFCE7",
"b. c #FAFAE9",
"n. c #FCFBE9",
"m. c #FDFCE9",
"M. c #FDFCEC",
/* pixels */
"$.=.=.=.=.=.=.=.=.=.=.=.=.=.=.=.=.=.=.=.=.=.=.=.=.=.=.=.1.1.=.=.=.1.1.=.=.=.=.=.=.=.=.=.=.=.=.=.=.=.=.=.=.=.=.1.=.=.=.=.=.=.$.$.",
"( ( ( ( ( ( ( ( ( ' ' ( ' ( ' ' ' ' ' ' ' ' ' ] ] ' { { { { } { } { { } { { ] ] ' ' ' ' ' ' ' ' ' ( ( ( ' ' ( ( ( ( ( ( ( ( E T ",
"H H H H H H H H H H H H H H H H H H H H H P J J I I I I I I I I I I I I I I I J H P H H H H H H H H H H H H H H H H H H C H H C ",
"M M M M M M M M M M M M M M M M M M M M M M M M M M M M M M M M M M M M M M M M M M M M M M M M M M M M M M M M M M M M M M M M ",
"R R R R R R R R R R R R R R R R R R R R R R R R R R R R R R R R R R R R R R R R R R R R R R R R R R R R R R R R R R R R R R R R ",
"c.c.c.c.c.c.v.m.m.n.n.m.m.m.m.m.m.m.m.m.m.m.m.M.m.b.i.e.b.m.m.m.m.m.j.e.h.m.m.M.m.m.m.m.m.m.m.m.m.m.m.m.n.n.m.m.v.c.c.c.c.c.c.c.",
"f.f.g.g.g.g.g.g.l.l.l.l.l.x.x.x.v.v.v.v.v.v.v.v.c.l.w.w.l.c.v.v.v.c.d.w.a.z.c.v.v.v.v.v.v.v.v.v.x.z.l.l.l.l.g.g.g.g.g.g.f.f.f.f.",
"r.y.y.y.y.y.u.u.a.a.a.a.a.s.s.s.d.f.f.d.d.d.f.f.d.d.r.d.f.f.f.f.f.f.f.a.a.d.d.f.f.d.d.f.f.d.d.d.s.s.a.a.a.a.a.u.u.y.y.y.y.r.r.r.",
"-.;.:.:.:.:.:.:.:.:.:.,.,.,.,.:.:.:.:.:.:.:.;.=.-.-.-.-.-.-.$.$.$.-.-.-.-.-.;.;.:.:.:.:.:.:.:.3.,.,.,.,.:.:.:.:.:.:.:.:.:.-.-.-.",
"( ( ' ' ' ] ] ] ] } } } } | | | | | | | | | | | | | | | | | | | | | | | | | | | | | | | | | | | | | } } } } ] ] ] ] ' ' ' ( ( ( ",
"I I Y Y I Y T T T T T T T T T T T ^ ^ / / / / / / ( ( ( ( ( ( ( ( ( ( ( ( / / / / / / / ^ ^ T T T T T T T T T T T Y Y Y Y I I I ",
"H H H H H H H H H H H H H H H H H H H H H H H H H H H H H H H H H H H H H H H H H H H H H H H H H H H H H H H H H H H H H H H H ",
"s s s s s s j j j j s s s s s s s s s s s s s a u u u u t t r 0 0 t t u u u u s s s s s s s s s s s s s s j l j j s s s s s l s ",
"C C Z C C Z J J J I I I I I I I I I I I I I I I I I J J J H H H H J J J J J J I I I I I I I I I I I I I I I J Z J Z C C Z C C Z ",
" . . . . .X.X.O.X.O.O.O.O.O.O.O.*.*.&.*.*.*.*.*.*.*.*.*.*.*.*.*.*.*.*.*.*.*.*.*.*.*.*.*.&.O.*.O.O.O.O.O.O.O.X.X.X.X. . . . . . .",
"#.#.#.#.#.#.%.%.#.%.%.%.%.#...O.o.%.%.-.-.-.-.-.-.%.%.%.-.-.-.-.-.-.-.%.%.%.-.-.-.-.-.-.%.%.O.X...#.%.%.%.%.$.$.#.#.#.#.#.#.#.#.",
"{ { { { { { { { { +.+.+.+.( / X.] #.$.) W W W W W ) { { ' W W W W W { { { ( W W W W W { $.| [ X./ { +.+.+.{ { { { { { { { { { { ",
"P P H H H P I I I Y Y Y Y H ^  .I L T j 0 0 0 0 0 s H H c 0 0 0 0 q M H H t 0 0 0 0 0 m E H /  .I Y Y Y Y Y I I I U P P H H H H ",
"I I H H P H H J H H I H H H I  .I M H g r t t t 0 s H H c 0 q q q t M H H u r t t t r M H M ^  .I H H H P I H J H H I I H H H H ",
"H I H I P H H H H H H H H H I  .J M H l u u u u u j H H c u u u u u M H S u u u u u u M H M ~  .H H H H H H H H H H Y Y I I H H ",
"S S S S S S M S H H H H H H I  .C M H j 0 0 0 0 0 u H H z 0 0 0 0 0 M H S t 0 0 0 0 0 c H M I [ H H H H H H H M S S S S S S S S ",
"4 5 4 4 4 4 4 7 c H H H H D I ` C M H j 0 0 q q 0 a H H l 0 0 0 0 0 M H S t q q q 0 0 c H M I ` H H H H H H j 5 4 4 4 4 4 4 4 4 ",
"p p p p f f p 5 0 M H H H G H ` C M H z u u u u u j H H c t u t u u M H S u u u u u u M H M I ` C H H H H c 5 7 p f p p p p p p ",
"! ! ! ! ~ ~ ~ N 4 u S H H S H _ C c S j r t t t 0 u H H k 0 0 0 0 0 m H S t r t t t t c M c A _ V H H H M 0 7 A ~ ~ ~ ! ! ! ! Q ",
"$.$.-.-.-.-.' ~ g 4 u c c z C ~ n u j s s s s s u u j i u u u t u u u j s u i s s s s s j y B ~ M z c z r 5 N ~ } -.-.-.-.$.$.$.",
"f.l.z.z.z.c.8./ Q y 2 2 3 4 x ~ Z r 5 1 1 1 1 , > < > > > > : ; : > > > > < > , 1 1 1 1 6 p Q ~ p 3 3 2 2 g ! ] w.c.z.z.z.l.f.d.",
"a.f.l.z.z.z.k.:.! Z n x x x Z ! ! Z C C C C C N N N N N N n n n n n N N N N N N C C C C C I ! ! N x x x N A / 8.l.z.z.z.f.f.a.a.",
"a.a.d.f.f.f.f.r.X.! ! ! ! ! ! ! ! ! ! ! ! ! ! ! I I I I I A A Z Z A I I I I I ! ! ! ! ! ! ! ! ! ! ! ! ! ! ! :.a.f.f.f.f.d.a.a.r.",
"r.a.a.a.a.a.a.a.q.3.;.:.3.4.6.6.4.3.:.:.;.;.;.;.;.;.=.=.=.-.-.-.-.-.=.=.=.;.;.;.;.;.;.:.:.4.6.6.6.3.3.:.:.4.r.r.a.a.a.a.a.a.r.w.",
"w.r.r.r.w.w.q.q.q.q.w.w.w.w.w.w.w.w.w.q.q.q.q.q.q.q.q.q.q.q.q.9.q.q.q.q.q.q.q.q.q.q.q.q.w.w.w.w.w.w.w.w.w.q.q.q.w.w.r.r.r.r.q.q.",
"q.q.q.0.9.9.9.8.8.8.8.8.8.8.8.8.8.8.8.8.8.7.8.8.8.7.7.7.7.7.5.5.7.7.7.7.7.7.8.8.7.7.8.8.8.8.8.8.8.8.8.8.8.8.8.8.9.9.9.q.q.q.0.9.",
"8.8.8.8.7.7.7.7.5.5.5.5.5.5.5.5.5.5.5.5.5.5.4.4.4.<.<.<.<.<.<.:.<.<.<.<.<.<.4.4.4.5.5.5.5.5.5.5.5.5.5.5.5.5.5.7.7.7.8.8.8.8.8.8.",
"5.5.5.5.5.4.4.<.<.<.,.<.4.<.<.<.:.,.,.:.-.-.:.:.-.-.%.%.%.%.%.%.%.%.%.%.-.-.-.:.-.-.-.:.,.,.:.<.<.<.4.<.<.<.<.<.4.4.5.5.5.5.5.7.",
"<.<.<.:.-.-.-.-.{ U ) ( ( ( W E Y E E E E E E E E E U U U K K K K K U U Y E E E E E E E E E Y E ( ( ( ( W U #.-.-.-.-.<.<.<.<.4.",
"-.-.-.%.%.%.%.| 0 6 i a a i i y r t y i i i u t t t t r 0 0 0 0 0 0 r t t t t t i i i i y r r i i a a i i 5 j $.%.%.%.%.-.-.-.-.",
"%.%.%.#.X.| | u 4 l Y T T ^ T T x d d d d f f d p y y y r r 8 8 8 r y y y y p d f f d d d d N T T ^ T T H p 3 M | | #.#.%.%.%.%.",
"#.#.X.X.| | c 1 p H Y T T T T ( T x p y y y y y y y 9 8 8 7 7 6 7 8 8 9 9 r y y y y y y p M T ( E T T T Y M r 1 U | | X.X.#.#.#.",
"E Y Y Y Y H 4 8 v L H H H H P Y Y L H H H H G S M M M M M m c c c M M M M M M V G H H H H Y Y Y P H H L L H l 7 0 U Y Y Y E E E ",
"0 0 0 0 0 0 7 l L L H H H H H H H H Y Y Y Y Y Y Y Y U U U L K K L L U U U Y Y Y Y Y Y Y U H H H H H H H H H H p 7 0 0 0 0 0 0 0 ",
"r r r r r r p H L H H H H H H H H H S M M M c c c c m c c c z z z c c m m c c c m M M M S H H H H H H H H H L G y r r r r r r 0 ",
"L L L L Y L L H H H H H H H H H H H c S L L L K K F j j F K K F K K b j k K K K L L L c M H H H H H H H H H H H L L L L L L L U ",
"U Y U U Y U L H H H H H H H H H H D k c M M H S c c u u c k m S c z z u s m c H H M M j c S H H H H H H H H H H L U U U Y Y Y Y ",
"H H H H H H H H H H H H H H D S S S k j c s z j k l u u k j a j a k j u u z j z z j c j c S S H H H H H H H H H H H H H H H H H ",
"H H H H H H H S S S D S S M S S M S j j M c z z c z u u z c k j k c j u u c c c c M M j c S S S S M S S S S S S S S H H H H H H ",
"S H H H S S S M M M M M M M M M M M j j v s j s j z u u z j u j u z j u u c j j j j M j z M M M M M M M M M S M S S S H H H H H ",
"M M M M M M M M M M M M M M M M M M j j j z c z s j u u j u j j j s j u u j j z c j z h z M M M M M M M M M M M M M M M M M M D ",
"M M M M M M M M M M M M M M M M M M j j v c z z z j q e j j j j j j h w e j z z c c c u z M m v M M M M M M M M M M M M M M M M ",
"M M M M M M M M M M M M M M M c c v j 0 0 0 5 5 5 4 0 w 5 4 2 2 2 4 5 u 0 5 5 5 6 7 0 0 z c c m M M M M M M M M M M M M M M M M ",
"M M M M M M M M M M M M M M M m m m c k j j j j s j j j a u u u u u j j j s s j j j j z c m m m M M M M M M M M M M M M M M M M ",
"s s j a a a a a a a a a a a a u u u u u u u t t q q q 0 0 0 0 0 0 0 0 0 q q q t t t u u u u u u a a a a a a a a a a a s j j s s ",
"= - = = = = = = = = = = * * * * * * * * * * * * * * * & % % % $ $ % % * * * * * * * * * * * * * * * * = = = = = = = = = = = = = ",
"Y Y Y Y Y Y Y Y Y Y Y U U Y U U U L L L L K K K K K K K H D D F F D K K K K K K K L L L L L U U U Y U Y Y Y Y Y Y Y Y Y Y Y Y Y ",
"M M M M M M M M M M M M M M M M M v c c c c c c c z z z j j j j j j j z z z c c c c v c c v M M M M M M M M M M M M M M M M M M ",
"M M M M M M M M M M M M M n n n n v c c c c l l l l s j j j s s s j j s j l l l l c c c v v n n n n M M M M M M M M M M M M M M ",
"m v M M M M M M M M M M M M m m c c c c c z z z l j j j j j s u s j j j j j j z z z c c c c c m m M M M M M M M M M M M v v m m ",
"@.@.@.@.@.@.@.@.@.@.@.@.@.@.+.{ { { { { { { { { ) ) ) ( ( ( ( E ( ( ( ( ) ) ) { { { { { { { { { @.@.@.@.@.@.@.@.@.@.@.@.@.@.@.@.",
"%.%.%.%.%.%.%.%.%.%.%.%.%.%.%.%.%.#.#.X.X.X.X...[ ] ( ^ ( ( / / / ( ( ^ ( [ ....X.X.X.X.#.#.%.%.%.%.%.%.%.%.%.%.%.%.%.%.%.%.%.%.",
"%.%.%.%.%.%.%.%.%.%.%.%.%.%.%.%.o.X.X.X.X.....[ ] ] ^ ^ / / ^ T ^ / / ^ / ] ] [ ....X.X.X.X.%.%.%.%.%.%.%.%.%.%.%.%.%.%.%.%.%.%.",
"%.%.%.%.%.%.%.%.%.%.%.%.%.%.%.%.#.X.X.#.#.#.X.| [ [ ] ] ] ( / / / ( ] ] ] [ [ | X.#.#.#.X.X.#.%.%.%.%.%.%.%.%.%.%.%.%.%.%.%.%.%.",
"D D D D D D D D D S H D D S S S M c m M S M M M M v m c c z z k z z c c M v M M M S S M c m S S S S D D D S D H H H H D D D D D ",
"M M M M M M M M v v v v v v v v c c c z z z z l l l l j j j j j j j j j l l l l z z z z c c c v v v c v v v M M M M M M M M M M ",
"M M M M M M M M M M M M M M M M M v M v c c c c z z l l j j j j j j j l l z z c c c c v M v M M M M M M M M M M M M M M M M M M ",
"j j j j l j k l k j j j j j j j s u u s s s s i u u u u u u w 0 w u u u u u u i s s s s u s j j j j j j l l k k k l l j j j j l ",
"+ + + @ # # + o + + O + O O O O O X X X O X X X X X . X . .     . . . X X X X X X X O X X X O O O X O O O # o o + # @ @ + + + # "
};
