/* XPM */
static char *_95c757d47e240f4c09452bfcdeca3eeGHoAVlBlbxjoQ5NB[] = {
/* columns rows colors chars-per-pixel */
"64 64 117 2 ",
"   c #3F424C",
".  c #44464D",
"X  c #45484E",
"o  c #4B4D51",
"O  c #55565A",
"+  c #56585B",
"@  c #5A5C5E",
"#  c #5C5E60",
"$  c #5F6064",
"%  c #626366",
"&  c #646469",
"*  c #69676C",
"=  c #67696B",
"-  c #6A6B6D",
";  c #676B72",
":  c #6B6E73",
">  c #6E7175",
",  c #717376",
"<  c #757877",
"1  c #73767B",
"2  c #76797D",
"3  c #7B7D7F",
"4  c #7D807F",
"5  c #777A80",
"6  c #7B7D83",
"7  c #7E8185",
"8  c #7F8389",
"9  c #828486",
"0  c #858884",
"q  c #8A8B86",
"w  c #83858A",
"e  c #86898B",
"r  c #8A8C8B",
"t  c #8D908F",
"y  c #90918D",
"u  c #8C8E90",
"i  c #8F9291",
"p  c #939694",
"a  c #989796",
"s  c #969896",
"d  c #989A96",
"f  c #979798",
"g  c #969A9A",
"h  c #9B9D9C",
"j  c #9EA19E",
"k  c #A4A397",
"l  c #A3A49D",
"z  c #9D9FA0",
"x  c #9EA2A2",
"c  c #A2A5A2",
"v  c #A6A9A5",
"b  c #A8A9A7",
"n  c #A2A4A8",
"m  c #A7ABA9",
"M  c #ABAEAA",
"N  c #ADB1AC",
"B  c #B3B5AE",
"V  c #AFB3B5",
"C  c #B3B5B3",
"Z  c #B6BBB6",
"A  c #BABDB7",
"S  c #B4B6B8",
"D  c #B6BAB8",
"F  c #BABEB9",
"G  c #BDC2BD",
"H  c #C1C5BD",
"J  c #CBCBBD",
"K  c #BDC3C1",
"L  c #BFC7C4",
"P  c #C0C7C3",
"I  c #C0C7C4",
"U  c #C2C8C3",
"Y  c #C5C8C3",
"T  c #C3C8C4",
"R  c #C4C8C4",
"E  c #C8CAC3",
"W  c #CECEC1",
"Q  c #C8CAC4",
"!  c #CED1C7",
"~  c #D1D1C5",
"^  c #D4D6CB",
"/  c #D4D9CD",
"(  c #D9DBCE",
")  c #D7DCD1",
"_  c #DADED2",
"`  c #DCE1D5",
"'  c #DDE3DA",
"]  c #D8E3DD",
"[  c #DBE5DF",
"{  c #E1E3D6",
"}  c #E1E6DC",
"|  c #E4E9DE",
" . c #DEE8E2",
".. c #E1E7E0",
"X. c #E5EBE3",
"o. c #E8EEE5",
"O. c #E3EDE8",
"+. c #E7EFE9",
"@. c #E9EFE8",
"#. c #E6F0E7",
"$. c #EAF0E6",
"%. c #E7F0E9",
"&. c #E7F2ED",
"*. c #EDF3EB",
"=. c #EDF4EB",
"-. c #EBF3ED",
";. c #EEF3ED",
":. c #E9F4EC",
">. c #EBF4ED",
",. c #EDF5ED",
"<. c #EBF7F0",
"1. c #ECF7F1",
"2. c #EEF9F0",
"3. c #F1F7F0",
"4. c #F1F8F0",
"5. c #F7F8F8",
"6. c #F8F8F8",
/* pixels */
"6.6.6.6.6.6.6.6.6.6.6.6.6.6.6.6.6.6.6.6.6.6.6.6.6.6.6.6.6.6.6.6.6.6.6.6.6.6.6.6.6.6.6.6.6.6.6.6.6.6.6.5.5.5.5.5.5.5.5.5.5.5.6.6.",
"S S S S S S S S S S S S S S S S S S S S S S S S S S S S S S S S S S S S S S S S S S S S S S S S S S S V V V C C V V V V V V S S ",
"c c c x x x j j j j j j x x j j j j x x j j j x x x x x z h z z z h h h h h h h h h h h h h h h h h h h h h h h h h g g g h h h ",
"l l l l l l l l l l l l j j j j j j j j j j j j j j j j j h h z z x x x x z z z z z z z z h h h h h h h h h h h h h h h d h z x ",
"e e e e e e e e e e e e e e e e e 0 0 0 0 0 0 0 0 0 0 0 0 0 0 w w w 0 0 w w w w w w w w w 9 9 9 9 9 9 9 9 9 9 9 9 9 9 9 9 9 0 0 ",
"R T T T R R R R Y R R R R R T T T U U T T T R T T T T T T T T T T T T T T T T T T T T T T I I I I K K P P K L L I I I I L I T T ",
"3.4.4.4.3.3.4.4.4.4.4.4.4.4.4.4.4.4.4.4.4.4.4.4.4.4.4.4.4.2.2.2.2.2.2.2.2.2.2.2.2.2.2.2.1.<.1.<.<.X.] -.<.<.<.<.<.<.<.<.>.>.2.2.",
";.,.,.,.;.;.,.,.,.,.,.,.,.,.,.,.,.,.,.,.,.,.,.,.,.;.;.;.;.-.>.,.,.>.>.>.>.>.>.>.>.>.>.>.>.>.>.-.O.[ ] +.-.-.-.-.-.-.-.&.&.-.>.>.",
"*.*.=.=.=.=.=.,.=.,.,.,.;.,.,.,.,.,.,.,.,.,.,.,.,.,.;.;.;.;.,.,.,.,.,.,.,.,.,.,.,.,.,.,.>.>.>.>.+. .>.-.-.-.-.-.>.-.-.-.-.-.,.,.",
"R R R R Q Q E Q Q R R R R R R R Q Q Q Q R R R R R R Q Q R R R R E R R R R R R R R R R R R R R R R R R R R R R R R R R P P Y R R ",
"h h h h h h h h h h h h h g h h h h h h h h h g g g h h h g g h d d g g g g g g g g g g g g g g g g g g g g g g g g g g g g d g ",
"n n n n n n n n n n n n n n n n n n n n n n n x x n n n n x x n n n x x x x x x x x x x x x x x x x x x x x x x x x x x x x c x ",
"c c c c c c c c c c c c c c c n c c c c c c c c c c n c c x n c c c x x x x x x x x x x x x x x x x x x x x x x x x x x x x c x ",
"h h h h d d h d d d d d d d d g g g s s s g g g d g g g g g g g g g g g g g g g g g g g p p p p p p p p p p p p p p p p p p g p ",
"- - - - = - - - - - - - - - - - - - - - - - - - - - - - - - - - - - - - - - - - - - - - = = - - - - - - - - - - = = = * * - - - ",
"p p p p p p p s s s s s s s s s s s s s p f f s s s s s s s g s s s p p p p p p p f p f p p p p p f p p p p p p p p p p p p p p ",
"G G G G H H H H H H H H H H H H H H H H H H H H H H H H H H H H H H G H H H G G G G G G G G G G G G G G G G G G G G G G G G H G ",
"A A A A A A A A A A A A F F F F F F F F F F F F F F F F F F F F F F F A A A Z A Z C Z A A D S D Z Z Z D D D Z Z D D D D D S F A ",
"C C C C C C C C C C C C C C C C C C C C C C C C C C C C C C C C C C C C C C C C C j N C C C C C C C C C C C C C C C C C C C C C ",
"v v b b b b b b b v v v v v v v v v v v v v v v v v n n n v v n c c c c c c c c n t h n c c n c c c c n n n n c x x c c c c c c ",
"c c c c c c c v v c c c c l l l l c c c c c x j l j j x x x x x x j j j x h 7 9 j e g p 4 e x x j j j x x x z h h h h h h j j j ",
"c c c c c l c c l l l l l l l l l l c c c c x j c c x c c c l c c c c c c t < , p e p 0 < 2 h x x x x x x x x x h h h h h j c c ",
"l l l l l j l l l j j j j l l l l l l l c x x x c c c c c c l l c c c c c g 7 9 h e g p 7 r j x x j x x x x x x h h h h h j c c ",
"d d d d d d d a a p p p s d d d d d d d d d d d d d d d d d d d d d d d d d f f g 9 p d p d d d g s g f p s g p p p p p p p d d ",
"& & & & & & & & & & & & & % % & & & & & & & & & & & & & & & & & & & & & & & & % & O $ & & & & & & % % & & % % % % % % % % % & & ",
"- - - - - - - - - - - - = - - - - - - - - - - - - - - - - - - - - - - - - - - - - = = - - - - - - - - - - = = = = = = = = = - - ",
"B B B B B B B B B B B B B B C B C C C C C C C B C C C C C C C C C B B B B C C B N B B B B B B N C C N N N N N N N N N N N N B B ",
"M N N N N M M N N N N M M N B N N N N N N B N N N N N N N N N N N N N N N N N N N N N N N N N M M M M M M M M M m m m m m M N N ",
"G G G K K P K K G G G G G K K K K K K K G G G G K K K K K K K K K K G K K K K K K K K K K K K K K K K K K K K K K K K K K K K K ",
">.*.;.;.;.;.;.;.;.*.*.*.*.*.;.*.*.;.*.*.>.>.>.>.>.>.>.-.-.-.-.-.-.>.>.>.>.@.@.>.>.>.>.>.>.>.>.>.>.%.%.%.%.%.%.%.%.+.+.+.+.@.>.>.",
">.@.*.*.*.*.*.*.*.*.*.*.*.*.*.*.*.*.*.*.>.>.>.>.>.>.>.-.>.>.>.>.>.>.>.>.>.>.@.@.@.>.>.>.>.$.@.$.@.@.@.%.#.o.+.o.o.o.o.o.o.o.>.>.",
"$.@.*.*.*.*.*.*.*.*.*.*.*.*.*.$.$.$.$.$.$.>.>.>.$.@.>.>.>.>.>.>.>.>.>.>.>.@.@.@.@.@.@.@.@.@.@.@.@.@.o.o.o.o.o.o.o.o.o.o.X.o.>.>.",
"@.$.>.*.$.$.$.*.*.$.$.$.$.$.$.$.$.$.$.$.@.@.@.@.@.@.@.@.@.@.@.@.@.@.@.@.@.@.@.@.@.@.@.@.o.o.o.o.o.o.X.X.X.X.X.X.X.X.X.X...o.@.@.",
"X.o.@.$.$.$.$.$.$.$.$.$.$.o.o.o.@.@.@.o.@.@.o.@.@.@.o.@.@.@.@.@.o.o.o.o.o.o.o.o.o.o.o.o.X.X.X.X.X.X.X.X.X...X.X.X.X.X.X.....o.o.",
"| X.X.X.o.$.$.$.$.o.X.X.X.X.X.X.X.X.X.o.o.o.X.X.X.X.X.X.o.o.o.o.o.o.X.X.X.X.X.X.X.X.X.X.X.X.X.X.X.X.....................| ..X.X.",
"} } | | o.o.o.o.o.X.X.X.X.X.X.X.X.X.X.X.X.X.X.X.X.X.X.X.X.X.X.X.X.X.X.X.................................| | ' ' ' ' ' ' ' | X.X.",
"{ } } | | X.o.o.X.X.X.| | | | | | | | | | | | | | | ..........| | | | | | | ' ' | | | | | | | ' ' ' ' ' ' ' ' ' ' ' ' ' ' ' | | ",
"_ ` { { } | | | | | | | | | | | | | } } } | | } } } | | | | | | } } ' ' ' ' ' ' ' ' ' ' ' ' ' ' ' ' ' ' ' ' ' ' ' ' ' ' _ ' ' ' ",
"( ( _ ` { } } } } } | } } } { } } } } { } } } } ' ' } } ' ' ' ' ' ' ' ' ' ' ' ' ` ` ' ' ' ' ` ` ` ` ` _ _ _ _ _ _ ) ) _ ) ` ' ' ",
"^ ^ ( ( _ ` ` { { { { { { ` ` ` ` ` ` ` ` ' ` ` ` ` ` ` ` ` ` ` ` ` ` ` ` ` ` ` ` ` _ _ _ _ _ _ _ _ _ _ ) ) ) ) ) ) ) ) ) ) ` ` ",
"~ ~ ^ ^ ( ( ( _ _ ` ` ` ` ` ` _ ` ` ` ` ` _ _ ` ` ` ` ` ` _ ` ` _ _ _ _ _ _ ` _ _ _ _ _ _ _ _ _ ) ) ) ) ) ) ) / / / / / / / _ _ ",
"J J ~ ~ ^ ^ ^ ^ ( ( _ _ _ _ _ _ _ _ _ _ _ _ _ _ _ _ _ _ _ _ _ _ _ _ _ _ _ _ _ _ ) ) ) ) ) ) ) ) / / / / / / / / ^ ^ ^ ~ ~ / _ _ ",
"J J J W W ~ ~ ~ ~ ^ ^ ^ ^ / / / / / / / ^ ^ ^ ^ / / / ^ / ^ ^ ^ ^ ^ ^ ^ ^ ^ ^ ^ ^ ~ ~ ^ ^ ^ ^ ^ ^ ^ ^ ! ! ! ! ^ ^ ! ! ! ! ^ ^ ^ ",
"q y p s s d s d d d d d d h h h h h h h h h h h h h h h h h h h h h h h h h h h h h h z h h h h h h h h h h h h h h h h h h h h ",
"0 0 q q q q q q q q q q q q q q q q q q q q q q q q q q q q q q q q q q q q q q q q r q e e e e e e e e e q e e e e e q q q q q ",
"k k k k k k k k k k k k k k k k l k k k k k k l l l l l l l k k k l k k k k k l k k l l l l l l j h h h h h h h h h h d d h l k ",
"l l l l l l l l l l l l l l l l l l l l l l l l l l l l c c c c c c c c c c l l l p l l l c c c l l l l l l l l l l j l l l c c ",
"h j j j j j c c c c c c c c c c c c c c c c c c c c c c c v v v v v c c c c c n d , j c c c n c c c c c c c c c c c c c c c v c ",
"y p p p p p p p p p p p s s s s s s s s s s s s s s s p s s s s g p i r r r u u 9 @ e r r r r r t p s s s p p p s p p p p p p i ",
"r r u i i i i i i i i p p p p p p p p p p p p p p p p p p p p p p t r e e < - 9 9 + 0 e < - 6 e e r p p p p p p p p p i i i r r ",
"e e e e e e e r r r r r r r r r r r r r r r u r t t r r r r r r r e e e 9 % # , 9 + 0 9 % # > e e e r t r r r r r r r r r r e e ",
"w w w w w w w w w e e e e e e e e e e e e e e e e e e e e e e e e e e e w , - 6 9 + w e , - 3 e e e e r e e e e e e e e e e e e ",
"9 7 7 7 9 9 9 9 9 w w 9 9 9 9 w w w 9 9 w w w w w w w w e e e e e e e e w e w e 7 O 9 e e w e e e e e e e e e e e e e e e e e e ",
"6 6 6 6 7 7 7 7 7 7 9 9 7 9 9 9 9 9 9 9 w w w w 9 9 w w w w w w w w w w w < : 7 7 O 9 e 2 : 7 e e e w 0 0 w w 9 9 9 9 9 9 9 w w ",
"6 6 6 6 6 6 6 6 6 6 6 7 6 7 7 9 9 9 7 9 9 9 9 9 9 9 w w w 9 w w w w w w 6 % # > 4 O 9 9 % @ - e e w 9 9 0 0 w 9 9 9 9 9 9 9 w w ",
"5 6 6 6 6 6 6 6 6 6 6 6 6 6 6 7 6 6 7 9 9 9 9 9 9 9 9 w w w w w w w 9 w 9 - & 2 3 O 9 9 - & < w w 9 9 9 9 9 9 9 9 9 9 9 9 9 w 9 ",
"6 6 6 6 6 6 6 6 6 6 6 6 6 7 7 7 6 7 9 9 9 9 9 9 9 9 9 9 9 w w w 9 9 9 w w 9 7 w 6 O 7 w 9 7 w w w 9 9 9 9 9 9 w w w w 9 9 9 w w ",
"; ; ; ; : : : : : : : : : > > : : > > , , > , > , , , , , , , , , , 1 1 1 1 1 1 : o > 1 1 1 , , , , , , , , , , , , > , , , , 1 ",
"  . . . . . . . . . . . . . . . . . . . . . . . . . . . . . . . . . X X . X . . . . . . . . . . . . . . . . . . . . . . . . . X ",
"8 8 8 8 8 8 w w w w w w w w w w w e e e e e e e e w e e e e e e e e e e e e e e e u e e e e e e e e e e e e e e e e e e e e e e ",
"6 6 7 7 7 7 8 8 7 8 8 8 8 8 w 8 w w w w w w w w w w w w w w w w e e e e e e w w e e e e e e e e e e e e e e e e e e e e e w e e ",
"6 6 6 6 6 6 6 6 6 6 7 7 7 7 7 7 7 7 7 7 7 7 7 7 7 7 7 8 8 8 w w w w w w w w w w w w w w w w w w w w w w w w w w w w w w w w w w ",
"6 6 6 6 6 6 6 6 6 6 6 6 6 8 7 7 7 7 8 8 8 w w w w w w w 8 8 w w w w w w w w w w w w w w w w w w w w w w e w w w w w w w w w w w ",
"1 1 1 1 1 1 1 1 1 1 1 1 1 1 1 2 1 2 2 2 5 2 5 5 5 5 5 5 5 5 5 5 5 5 6 6 6 6 6 6 6 6 6 6 6 6 6 6 6 6 6 6 6 6 6 5 5 5 6 6 6 6 6 6 "
};
