/* XPM */
static char *_45be8f19cbd4493df5b77c77bd1b1f6ZBn8Xll6Zwisyydn[] = {
/* columns rows colors chars-per-pixel */
"64 64 127 2 ",
"   c #754B1C",
".  c #784E1D",
"X  c #7D531E",
"o  c #7E5420",
"O  c #81561E",
"+  c #845A1D",
"@  c #895D1D",
"#  c #89601F",
"$  c #94691F",
"%  c #815722",
"&  c #855D24",
"*  c #885F24",
"=  c #866026",
"-  c #8B6424",
";  c #8E6825",
":  c #876028",
">  c #926723",
",  c #946B23",
"<  c #9A6E23",
"1  c #946D29",
"2  c #977026",
"3  c #9D7224",
"4  c #9C7329",
"5  c #A27525",
"6  c #A57925",
"7  c #AA7D25",
"8  c #A27629",
"9  c #A57A2B",
"0  c #AA7E2B",
"q  c #AD8125",
"w  c #AD822A",
"e  c #B18325",
"r  c #B68926",
"t  c #BA8C26",
"y  c #B18429",
"u  c #B58A2A",
"i  c #BA8D29",
"p  c #BE9127",
"a  c #BE9229",
"s  c #B18531",
"d  c #B48A32",
"f  c #B78C3A",
"g  c #BB8E3A",
"h  c #BE9332",
"j  c #BC923D",
"k  c #C08F2A",
"l  c #C29326",
"z  c #C69827",
"x  c #CB9B27",
"c  c #C2932A",
"v  c #C99729",
"b  c #C69829",
"n  c #CA9B2A",
"m  c #D29E26",
"M  c #D29F29",
"N  c #C19532",
"B  c #C59A32",
"V  c #CA9E31",
"C  c #C39B3F",
"Z  c #C99D3A",
"A  c #CEA028",
"S  c #D4A227",
"D  c #DBA527",
"F  c #DEA827",
"G  c #D4A12A",
"H  c #DBA529",
"J  c #DEA829",
"K  c #CEA131",
"L  c #D2A331",
"P  c #D7A830",
"I  c #DAAA33",
"U  c #E2AB27",
"Y  c #E0A729",
"T  c #E3AC2A",
"R  c #E6B02A",
"E  c #EAB32B",
"W  c #E6AF30",
"Q  c #E6B233",
"!  c #E9B435",
"~  c #EAB43A",
"^  c #BE9443",
"/  c #BF954B",
"(  c #BF964D",
")  c #C09447",
"_  c #C59D42",
"`  c #C09449",
"'  c #C0964F",
"]  c #C09750",
"[  c #C09851",
"{  c #C09B56",
"}  c #C19D57",
"|  c #C19D59",
" . c #EBB740",
".. c #EFBA42",
"X. c #EBB846",
"o. c #EDB845",
"O. c #EDBB4B",
"+. c #EFBC4F",
"@. c #EEBB51",
"#. c #EEBC53",
"$. c #EEBD55",
"%. c #EFBF5B",
"&. c #F0BD51",
"*. c #EEC05D",
"=. c #F1C05B",
"-. c #F1C15E",
";. c #EFC366",
":. c #F1C263",
">. c #F2C267",
",. c #F1C466",
"<. c #F2C469",
"1. c #F1C56D",
"2. c #F3C56F",
"3. c #F4C772",
"4. c #F0C675",
"5. c #F4C776",
"6. c #F4C97B",
"7. c #F5CB7D",
"8. c #F4CD7E",
"9. c #F5CF83",
"0. c #F5D086",
"q. c #F5D189",
"w. c #F5D58B",
"e. c #F6D68D",
"r. c #F6D790",
"t. c #F7D993",
"y. c #F7DB95",
/* pixels */
"c c c c c c l l l l l l l l l l l c c c l l l c c c c c l l l c c c l l l l l c c l l l l l l l c c l l l l c l l l l l l l l l ",
"e e e e e e e e e e r e e e e e e e e e e e e e e e e e e e e e e e e e e e e e e e e e e e e e q q e e e e e e e e e e e e e e ",
"7 7 7 7 7 7 7 7 7 7 7 7 7 7 7 7 7 7 7 7 7 7 7 7 7 7 7 7 7 7 7 7 7 7 7 7 7 7 7 7 7 6 7 7 7 7 7 7 7 7 7 7 7 7 7 7 7 7 7 7 7 7 7 7 ",
"6 6 6 6 6 6 6 6 6 6 6 6 6 6 6 6 6 6 6 6 6 6 6 6 6 6 6 6 6 6 6 6 6 6 6 6 6 6 7 7 5 5 5 5 6 6 6 6 5 5 6 6 6 6 6 5 6 6 6 7 7 7 6 6 ",
"| | | } } } } { { { [ [ [ [ [ [ ] ] ] ' ( ( ' / ` ` ` ) ^ ^ ^ ^ ^ ^ ^ ^ j j j j j g j j j j j j j g j j j j j j j j j g g g f f ",
"y.t.t.r.e.w.q.q.0.9.9.8.7.6.5.3.1.<.,.>.*.*.%.$.&.&.+.O.O.O.o.X.X. . . .~ I H ~ ~ ~ ~ ~ ~ ~ ~ ~ ~ ~ ~ ~ ~ ~ ~ ~ ! ! ! ! ! ! ! ! ",
"1.<.>.:.-.%.$.#.@.O.o.o. .~ ~ ~ ~ Q Q Q T T T T T T T U T T T Y Y Y U U F m m J Y Y Y U J Y Y J F F F D F F U U J J F F F J J F ",
"! Q W T T T T T T T T T Y Y Y Y Y J J J J D J H H H H H H H H G G G G G G m G G G G G G G m m G G G G G G G G G G G G G G G G M ",
"n n x n n n n b c c c c c c b b b b c c c c c c c c l l l l l l l p p p p p i i i i t t t t t t t t t t t t t t u u u u r r r r ",
"r r r r r r r r q r e e q q q q q q q q q q q q q q q q q q q q q q q q q q q q q q q q q q q q q q q q q q q q w w q q q q q q ",
"e q q q w q q q q q q q q q q q q q q q q q q q q q q q q q q q q q q q q q q q q q q q q q q q q q q q q q q q q q q q q q q 7 ",
"7 7 7 7 7 7 7 q 7 7 7 7 q 7 7 7 7 7 7 7 7 7 7 7 7 7 7 7 7 7 7 7 7 7 7 7 7 7 7 7 7 7 7 7 7 7 7 7 7 7 7 7 7 7 7 7 7 7 7 7 7 7 7 6 ",
"5 5 5 5 5 5 5 5 5 5 5 5 5 5 5 5 5 5 5 5 5 5 5 5 5 5 5 5 5 5 5 5 5 5 5 5 5 3 3 3 3 3 3 3 3 3 < < < < < < < < < < < , , , , , , , ",
"r e e q q q q q q q 7 7 7 7 7 7 7 7 7 7 7 6 6 6 6 6 6 6 6 5 5 5 5 5 5 5 5 5 5 5 5 5 3 3 3 3 3 3 3 3 3 3 3 3 3 3 3 3 3 3 < , 1 1 ",
"l k k i i i t t t t t t r u r e e e y y r r e e q q q q q q q q q 7 q 7 7 7 7 7 7 7 7 7 7 7 7 7 7 7 7 7 7 7 7 7 7 6 6 6 8 4 4 4 ",
"l l l l l p p i i p p p i i t t t t t t t t t t t t t t t t t t t t t r r r r r r r r r r e 7 e e e e r r r r r e r r r q q 7 6 ",
"i i t t i i i t t t t t t t t t t t t t t t t t t t t t t t t t t t t t t t t t t t t t t 7 6 r t t t t t u u r t y y y y r q q ",
"q q q q q q q q q q q q q q q q q q q q q q q q q q q q q q q q q q q q q q q q q q q q q 5 5 7 7 7 7 7 7 7 7 7 7 7 6 6 6 6 6 6 ",
"q q q q q q q q q q q q q q q q q q q q q q q q q q q q q q q q q q 7 7 7 7 7 7 q q q q 7 5 5 6 7 7 7 7 7 7 7 7 7 7 6 6 6 6 6 6 ",
"q q q q q q q q q q q q q q q q q q q q q q q q q q q q q q q q q 7 7 7 7 7 7 7 7 7 7 7 7 5 3 7 7 7 7 7 7 7 7 7 7 7 6 6 6 6 5 5 ",
"7 7 7 7 7 7 7 7 7 7 7 7 7 7 7 7 7 7 7 7 7 7 7 7 7 7 7 q q q q 7 7 7 7 7 7 7 7 7 7 7 7 7 7 5 3 7 7 7 7 7 7 6 5 5 5 5 3 3 3 4 4 4 ",
", , , , , , , , , , , , , , , , , , , , , , , , , , < 6 7 7 7 7 7 7 7 7 7 7 7 7 7 7 7 7 7 5 3 7 7 7 7 7 9 > # # # # # & & & & & ",
"5 5 5 5 3 3 3 3 3 3 3 3 3 < < < < < < < < < < , , , , < 6 7 7 7 7 7 7 7 7 7 7 7 7 7 7 7 7 5 5 7 7 7 7 7 , - - - - : & & & & & & ",
"r r y w q w w w w q q q 0 7 7 6 6 6 6 6 6 6 6 6 6 6 3 < 5 9 7 7 7 7 7 7 7 7 7 7 7 7 7 7 7 5 3 0 0 0 9 3 > 1 1 1 1 , ; ; - ; - - ",
"C C Z B B B B B N y 7 7 7 9 7 6 6 6 6 6 6 6 6 6 6 6 5 < < 5 5 5 6 6 5 5 5 5 5 5 5 5 5 5 5 3 3 9 5 5 < > 1 1 9 d d d u u y w 0 9 ",
"4.;.+.~ ! Q Q ! ! K w 7 6 6 6 6 6 6 6 6 6 6 6 5 5 5 3 3 < , > > > > - - - - > > ; - - - - - , ; - - - , , 4 B I I P P L K b c a ",
"=...E R T T T T R T b 7 6 6 6 6 6 6 6 6 6 5 5 3 3 3 3 3 3 < , , , , , , > > > > , > > , > > , , , ; , 1 4 h P S S S A n b c l i ",
"! E R U T F F T Y Y H t 6 6 6 6 5 5 6 5 5 3 3 3 3 3 3 3 3 3 3 3 3 3 3 3 3 3 3 3 3 3 3 3 2 , , , , , , , d K G G G A x n b c p t ",
"R T T U D H D D J H H G r 6 6 5 5 5 5 5 5 5 5 5 3 3 3 3 3 3 3 3 3 3 3 3 3 3 3 3 3 3 3 3 < 3 , , , , , w Z n n n n n n b c p p t ",
"U Y J J D S G D S G G G n B B B B B B B B B B B B B B B B h h N N h h h h h h h h h h h h N h h h h h Z n z l l c c c c l p p p ",
"F J D H G M G G m x x M G L L L L L L L L L L K K L K K K K K K K K K K V V V V V V V V V V V V B B B b c l p l p p p p a p p p ",
"S S G G M x m M x x x x n v n n n b b c n c c c c c c c c c l c l l l l l l l l l l p p p p i i i t t t p i t t t t t i i t t t ",
"S G M M x x x x v l l c y y r y y y y y y y r r y y y y y w w w w w q q q q q q q q q q 6 6 6 6 6 6 6 q u r r r r u u u u u u u ",
"x x x x x x x b l l c u > , 3 3 3 3 2 2 2 , 2 , , , , , , , , , , , , > > > > > ; ; ; ; ; ; ; ; ; ; - ; q y r r r r y y u u u u ",
"z z n n b b z l p p u , , 3 3 3 3 3 3 3 , , , , , , , , , , , , , > , , , , , ; ; ; ; ; ; ; ; ; ; ; - = , q y r r r r r y y y y ",
"l l l l c l l p i t 3 $ 5 q r r r r e e q w q q q q 7 3 , , , , , > > , , , , ; ; ; ; ; ; ; - ; 3 6 6 ; & , w w y q w w q q q y ",
"p p p p l l l p t 6 - 3 q q q q r e e e e e e q q q q q 3 , , > ; ; ; ; ; ; ; ; ; ; ; ; ; - - 4 w q q 4 - & 4 w w w w w w w w q ",
"y y y y y y y y 0 > < 0 q q q q q q q q q q q q q q q q 0 6 6 6 6 6 6 6 6 6 6 5 5 8 8 5 3 3 6 w 7 7 7 9 < & * 4 4 4 4 4 4 4 4 3 ",
"3 3 3 3 3 3 3 3 < , 6 w q q q q q q q q q q q q q q q q q q w e e q y y e e e e y y y w q q 7 7 7 7 7 7 6 , & - : : & & & & & & ",
"3 3 3 3 3 2 3 < < 3 q q q q q q q q q q q q q q q q q q q 7 7 6 6 6 6 6 6 7 7 6 6 7 6 6 6 6 6 7 7 7 7 7 6 5 ; - : : & & & & & & ",
"e y y w w q q y q q q q q q q q q q q q q q q q q q q q q 7 7 e e e e e 7 6 6 q q q q q q 6 5 7 7 7 7 6 6 6 5 4 3 5 5 3 3 3 3 4 ",
"q q r q q q q q q q q q q q q q q q q q q q q q q 7 7 7 7 6 6 7 7 7 7 7 7 5 5 7 6 7 7 7 6 5 5 6 7 7 6 6 6 5 6 6 6 6 6 5 5 5 5 5 ",
"7 7 q 7 7 7 7 q 7 7 7 q 7 7 7 q q q q q q q 7 7 7 7 7 7 7 5 6 7 5 7 6 6 6 3 3 6 5 5 5 5 6 5 5 6 6 6 6 6 6 6 5 5 5 5 5 5 5 3 3 3 ",
"7 7 7 7 7 7 7 7 7 7 7 7 7 7 7 7 7 7 7 7 7 7 7 7 7 7 7 7 7 5 6 7 7 7 6 7 6 3 3 6 6 6 6 6 6 5 5 6 6 6 6 6 6 5 5 5 5 5 5 5 5 3 3 3 ",
"7 7 7 7 7 7 7 7 7 7 7 7 7 7 7 7 7 7 7 7 7 7 7 7 7 7 7 7 7 5 6 7 5 6 6 6 6 5 5 6 6 5 5 5 6 5 5 5 5 6 6 8 5 5 5 5 5 5 5 5 3 3 3 3 ",
"7 7 7 7 7 7 7 7 7 7 7 7 7 7 7 7 7 7 7 7 7 7 7 7 7 7 7 7 7 6 6 6 6 7 6 6 6 3 3 6 5 6 6 5 5 5 5 5 5 6 5 8 5 5 5 5 5 5 5 3 3 3 3 3 ",
"7 7 7 7 7 7 7 7 7 7 7 7 7 7 7 7 7 7 7 7 7 7 7 7 7 7 7 7 7 5 5 9 7 6 6 6 5 3 3 5 6 5 5 5 5 5 5 5 5 5 5 5 5 5 5 5 5 5 5 3 3 3 < < ",
"7 7 7 7 7 7 7 7 7 7 7 7 7 7 7 7 7 7 7 7 7 7 7 7 7 7 7 7 7 6 < < < < < < $ 3 3 < < , , , , $ 3 5 5 5 5 5 5 5 5 5 5 5 3 3 3 3 3 < ",
"7 7 7 7 7 7 7 7 7 7 7 7 7 7 7 7 7 7 7 7 7 7 7 7 7 7 7 7 7 6 6 6 5 6 6 5 5 6 6 5 5 5 8 5 5 5 5 6 5 5 5 5 5 5 5 5 5 5 3 3 3 3 < 3 ",
"5 5 5 5 5 5 5 5 5 5 5 5 5 5 5 5 5 5 5 5 5 3 3 3 3 3 3 3 3 3 3 3 3 3 3 3 3 3 3 3 3 3 3 3 3 3 < < < < < < < < , , , , , , , , > > ",
"@ @ @ @ @ @ @ @ @ @ @ @ @ @ @ @ @ @ @ @ @ @ @ @ @ @ @ @ @ @ @ @ @ @ @ @ @ @ @ @ @ @ @ @ @ @ @ @ O O O O O O O X X X X X X X o X ",
"y y y y y y y y y y y y y y y y y y y y y y y w w w w y w w w y y y w w w 0 0 0 0 0 0 0 0 0 0 0 0 9 9 9 9 8 8 8 8 5 3 3 3 3 3 < ",
"7 7 7 7 7 7 7 7 7 7 7 7 7 7 7 7 7 7 7 7 7 7 7 7 7 7 7 7 7 7 7 7 7 7 7 7 6 6 6 6 6 6 6 6 6 6 5 5 5 5 5 5 5 5 5 5 5 3 3 3 3 3 3 3 ",
"7 7 7 7 7 6 7 7 6 7 7 7 6 7 7 7 7 7 7 7 6 6 6 7 7 7 7 7 6 7 7 7 7 7 7 7 6 5 5 5 5 5 5 5 5 5 5 5 5 5 5 5 5 5 3 3 3 3 3 3 3 3 < < ",
"w w 0 0 0 0 0 0 0 0 0 0 0 0 0 0 0 0 0 0 9 9 9 9 0 0 9 9 9 9 0 0 0 9 9 9 9 9 9 9 9 9 9 9 9 8 8 8 8 8 8 8 8 3 3 3 3 3 < < < < < < ",
"_ _ _ _ _ _ _ _ _ _ _ _ _ _ _ _ _ _ _ _ _ _ _ _ _ _ _ _ _ C _ _ C C _ ) j j j j j ^ j j j j j j j j f f f d d d s w w w q 0 0 0 ",
"c c c c a a a a a a a a a a p a p p p p p p p p a a t t t t i i u u u y y y w y y r q q q w w w w w w w 0 0 7 7 7 7 6 6 6 6 6 0 ",
"c c c c c c c a a a a a p p p p p p p p i i i i i i t t t t t u u u u y y r y y r e q q q q q q 7 7 7 0 0 6 6 6 6 6 6 6 6 8 6 6 ",
"c c c c c p p a a c c c c c a a a a p p i i i i i i i i i i u u u u u u y y y y w w w w w w w 0 0 7 0 9 9 8 3 4 3 3 3 3 3 4 3 4 ",
"q q q q q 7 7 7 q q q q q w q w w w w w q q q q w w 7 7 7 7 7 7 7 7 7 7 7 6 6 6 6 6 6 6 6 5 5 5 5 5 3 3 3 < , , , , , , , , , , ",
"6 6 6 6 7 6 7 7 7 7 7 7 7 7 7 7 0 0 7 6 6 6 6 6 6 6 6 6 6 6 6 6 6 6 6 6 6 6 6 5 6 6 6 6 6 5 5 5 5 5 5 5 5 3 3 3 3 3 3 3 3 3 3 3 ",
"7 7 7 7 7 7 7 7 7 7 7 7 7 7 7 7 7 7 7 7 7 7 7 7 7 7 7 7 6 6 7 7 7 6 6 6 5 5 5 5 9 9 8 8 5 5 5 5 5 5 5 5 5 5 3 3 3 3 3 3 3 < < < ",
"8 8 8 8 8 8 8 8 8 5 8 8 8 8 8 5 8 5 5 5 5 5 5 5 5 5 8 8 5 3 5 8 8 5 5 5 5 8 8 8 8 4 3 3 3 3 < < < < < < < < < < < < < , , , , > ",
"o o o o X o o o o o o o o o o o o o X X X X X X X o o X o o X X o X X X X o o X X & % & X X X . . . .   X & % + + + + +         "
};
