/* XPM */
static char *_3c1a61af273431c8c57e21370e5775bVmZmoBfMiNVI1pK2[] = {
/* columns rows colors chars-per-pixel */
"16 16 27 1 ",
"  c None",
". c #F85252",
"X c #F95252",
"o c #F95353",
"O c #FA5353",
"+ c #F95454",
"@ c #FA5454",
"# c #F95757",
"$ c #F95A59",
"% c #F95B5A",
"& c #F95D5C",
"* c #FA6664",
"= c #FA6764",
"- c #FA716D",
"; c #FB7A75",
": c #FB7B75",
"> c #FB7B76",
", c #FC9189",
"< c #FC9289",
"1 c #FC928A",
"2 c #FDA398",
"3 c #FDA499",
"4 c #FDA89D",
"5 c #FEC0B1",
"6 c #FFCFBF",
"7 c #FFD1C0",
"8 c #FFD3C2",
/* pixels */
"                ",
"                ",
"  XXXXXX#XXXXX  ",
" XXXXXXXXXXXXX  ",
" XXXXX1--1XXXXX ",
" XXX##5115##XXX ",
" XXX41$&&$14XXX ",
" XXX-*1771*-XXX ",
"  XXX>7777>XXX  ",
"   XX377772XX   ",
"   #X>6787>##   ",
"    #XX$$###    ",
"     XXXXX#     ",
"       XX       ",
"                ",
"                "
};
