/* XPM */
static char *_833e086345548bac0918fd783044f79z3cvhwC8Cs26D0sZ[] = {
/* columns rows colors chars-per-pixel */
"8 8 2 1 ",
"  c None",
". c #ED1C24",
/* pixels */
"   ..   ",
"  ....  ",
" ...... ",
"........",
"........",
"  ....  ",
"  ....  ",
"  ....  "
};
