/* XPM */
static char * miniplayer_xpm[] = {
"16 16 9 1",
" 	c #CAC6C6",
".	c #BFA6A6",
"+	c #B68686",
"@	c #AF6969",
"#	c #A73333",
"$	c #A51D1D",
"%	c #AA4D4D",
"&	c #A50F0F",
"*	c #A50C0C",
"                ",
"                ",
"      .++.      ",
"    .@#$$#@.    ",
"   .%&****&%.   ",
"   @&******&@   ",
"  .#********#.  ",
"  +$********$+  ",
"  +$********$+  ",
"  .#********#.  ",
"   @&******&@   ",
"   .%&****&%.   ",
"    .@#$$#@.    ",
"      .++.      ",
"                ",
"                "};
