/* XPM */
static char *adccd4d8b8e2428ca556c12bb9fd1f76a9BS63euR1qpqLWB[] = {
/* columns rows colors chars-per-pixel */
"16 16 39 1 ",
"  c #191A1B",
". c #1B1B1C",
"X c #1C1C1E",
"o c #1F1F20",
"O c #202021",
"+ c #212324",
"@ c #252627",
"# c #252628",
"$ c #2E2E2F",
"% c #303032",
"& c #333334",
"* c #343435",
"= c #373738",
"- c #373838",
"; c #393A3A",
": c #3A3B3D",
"> c #3B3C3E",
", c #3C3C3E",
"< c #3E3E41",
"1 c #3F4042",
"2 c #404043",
"3 c #414245",
"4 c #47474B",
"5 c #47484B",
"6 c #565657",
"7 c #5D5D5E",
"8 c #5A5B61",
"9 c #5F5F60",
"0 c #5E5F65",
"q c #5F6065",
"w c #606062",
"e c #626264",
"r c #646464",
"t c #626369",
"y c #63646A",
"u c #66676D",
"i c gray42",
"p c #6B6B6D",
"a c #6C6C6D",
/* pixels */
"%O@#X;X##.;X#@O%",
"op:4w+644wO65:po",
"+:a$;8;r&;8;9;:+",
"+5$i:u1&r2u;=95+",
" w;;p@r;;r#a:;6.",
"-@8u@rOttXi@u8O=",
".6;>iOr::aoi,;w ",
"+4w*;y:p&:y;a%4+",
"+,=e;t:&p:t;%a,+",
"oa:3roa,:rOr3:w ",
"%Oqu#iOyyOr#u0@-",
" 9;;a@i;;i@p;;w ",
"+47=;u<i%<u;i$5+",
"+:;7:q;&a:q;$a>+",
"op:59Xa,>9#w5:po",
"%O@#X%O@@.,X#@O%"
};
